<svg xmlns="http://www.w3.org/2000/svg" width="30" height="30" fill="none" viewBox="0 0 30 30"><path fill="#fff" d="M12.188 25.313a1.875 1.875 0 1 1-3.751 0 1.875 1.875 0 0 1 3.75 0M22.5 23.438a1.875 1.875 0 1 0 0 3.75 1.875 1.875 0 0 0 0-3.75m5.591-14.75-3.005 10.814a2.82 2.82 0 0 1-2.703 2.06H10.8a2.82 2.82 0 0 1-2.714-2.06L3.975 4.688h-2.1a.937.937 0 1 1 0-1.875h2.813a.94.94 0 0 1 .903.686L6.701 7.5h20.487a.938.938 0 0 1 .903 1.188m-2.138.687H7.223l2.673 9.626a.94.94 0 0 0 .904.686h11.583a.94.94 0 0 0 .903-.686z"/></svg>