<svg width="35" height="35" viewBox="0 0 35 35" fill="none" xmlns="http://www.w3.org/2000/svg">
<path d="M0.69043 0.695312C1.61151 -0.232178 3.10525 -0.232114 4.02637 0.695312L17.5088 14.2715L30.9727 0.714844C31.8937 -0.212522 33.3875 -0.212436 34.3086 0.714844C35.2297 1.64238 35.2297 3.14668 34.3086 4.07422L20.8447 17.6309L34.0469 30.9258C34.968 31.8533 34.968 33.3576 34.0469 34.2852C33.1259 35.2122 31.6329 35.2121 30.7119 34.2852L17.5088 20.9902L4.28809 34.3047C3.36702 35.2322 1.87327 35.2321 0.952148 34.3047C0.0310351 33.3772 0.0310351 31.8729 0.952148 30.9453L14.1729 17.6309L0.69043 4.05469C-0.230666 3.12715 -0.230678 1.62284 0.69043 0.695312Z" fill="#929292"/>
</svg>
