<svg xmlns="http://www.w3.org/2000/svg" width="36" height="36" fill="none" viewBox="0 0 36 36"><g clip-path="url(#a)"><rect width="36" height="36" fill="#595959" rx="4.5"/><path fill="#fff" d="M15.98 8.12h2.414c0 .177-.011.354-.022.522l-.128 2.587q-.048.93-.256 1.86c-.14.63-.342 1.23-.684 1.79a4.7 4.7 0 0 1-1.153 1.27c-.577.432-1.229.727-1.944.924-.758.207-1.527.295-2.307.364-.449.04-.897.06-1.335.079-.545.03-1.1.04-1.645.06l-.822.029v-1.771c0-.02.021-.03.021-.05 0-.314.01-.62.021-.934 0-.138 0-.276.022-.413l.032-.758c0-.148.021-.295.032-.443.021-.216.053-.433.085-.65.032-.196.054-.383.096-.57.064-.285.14-.58.225-.866.117-.393.288-.757.523-1.101.17-.256.374-.492.63-.69.288-.216.598-.393.94-.54.46-.187.94-.325 1.442-.404.449-.068.886-.127 1.335-.177.352-.039.716-.059 1.079-.078.448-.02.908-.02 1.356-.04.022 0 .043-.01.075-.02zM8.098 19.946v-1.85c.467.021.924.031 1.391.052.498.02.986.04 1.484.07.457.031.904.082 1.361.122a8.5 8.5 0 0 1 1.666.336c.884.274 1.656.721 2.276 1.422a5 5 0 0 1 1.056 1.93c.193.63.295 1.28.356 1.94.05.56.101 1.118.122 1.687.03.66.05 1.33.07 1.991 0 .081 0 .173.011.254H17.8c-.62 0-1.24-.01-1.85-.02-.406 0-.802 0-1.208-.02-.427-.02-.854-.051-1.28-.082a6 6 0 0 1-.58-.05 24 24 0 0 1-.904-.143c-.599-.111-1.188-.284-1.716-.589a4.3 4.3 0 0 1-.62-.437c-.295-.254-.508-.579-.691-.914a4.7 4.7 0 0 1-.406-1.087 12 12 0 0 1-.305-1.788c-.03-.274-.05-.549-.071-.823-.01-.223-.03-.447-.03-.67 0-.295-.01-.58-.021-.874v-.376c0-.03-.01-.05-.02-.071z"/><path fill="#fff" d="M18.393 8.1H20.6c.02 0 .04.01.06.02.364.01.738.01 1.103.03.444.02.878.05 1.321.099.316.03.641.069.957.128.483.09.956.208 1.4.415.443.198.857.455 1.183.82.187.217.345.455.473.702.197.385.335.79.424 1.205.079.395.138.79.207 1.185.04.228.06.455.079.682s.03.455.04.682c.01.247.029.504.029.75.01.415.02.83.02 1.245v1.542h-.612c-.63-.02-1.262-.04-1.893-.08-.571-.039-1.153-.078-1.725-.148a7.6 7.6 0 0 1-1.804-.415 4.63 4.63 0 0 1-2.86-2.983 9 9 0 0 1-.374-1.769 27 27 0 0 1-.128-1.53c-.04-.702-.06-1.394-.089-2.095 0-.158-.01-.316-.02-.475zm-.289 19.8c0-.213.01-.426.02-.63.02-.569.04-1.127.071-1.696.02-.427.041-.864.082-1.29.08-.874.203-1.738.497-2.57.234-.64.58-1.22 1.047-1.718a4.9 4.9 0 0 1 1.96-1.25 6.7 6.7 0 0 1 1.402-.334 28 28 0 0 1 1.606-.173c.579-.04 1.158-.061 1.747-.091.427-.02.853-.031 1.28-.051h.081v2.133c0 .396-.02.793-.04 1.189 0 .183-.01.376-.03.558l-.062.722c-.02.172-.03.355-.05.528-.041.264-.072.528-.133.792-.07.315-.152.64-.254.955a3.9 3.9 0 0 1-.65 1.24 3.1 3.1 0 0 1-.945.782c-.569.315-1.178.488-1.808.6-.295.05-.6.09-.894.131q-.35.045-.7.061c-.306.02-.61.041-.915.051-.468.02-.925.03-1.392.03-.62 0-1.24.01-1.86.021h-.07z"/></g><defs><clipPath id="a"><path fill="#fff" d="M0 0h36v36H0z"/></clipPath></defs></svg>