<svg xmlns="http://www.w3.org/2000/svg" width="36" height="36" fill="none" viewBox="0 0 36 36"><g clip-path="url(#a)"><rect width="36" height="36" fill="#595959" rx="4.5"/><path fill="#fff" d="M18.453 6.299c.552.14 1.134.206 1.656.418 1.997.824 3.245 2.327 3.586 4.485.372 2.37-.461 4.303-2.369 5.715-1.235.915-2.657 1.249-4.174 1-2.045-.333-3.545-1.46-4.397-3.358-.9-2-.695-3.951.522-5.763.822-1.23 1.998-2 3.431-2.346.276-.066.564-.103.84-.151zm2.442 5.842c0-1.606-1.308-2.915-2.897-2.915-1.59 0-2.891 1.315-2.891 2.921 0 1.618 1.307 2.934 2.903 2.928 1.589-.006 2.884-1.328 2.878-2.934z"/><path fill="#fff" d="M16.694 23.093c-.81-.218-1.632-.394-2.418-.66-1.511-.522-2.825-1.388-3.952-2.534a1.45 1.45 0 0 1-.018-2.036c.522-.558 1.373-.606 1.98-.085.575.503 1.145 1.012 1.816 1.382a7.9 7.9 0 0 0 4.295 1.012 7.6 7.6 0 0 0 3.85-1.236c.474-.31.9-.685 1.326-1.061.42-.37.882-.564 1.433-.412.54.145.894.497 1.038 1.042.15.558-.012 1.043-.414 1.437-1.71 1.678-3.742 2.709-6.112 3.042-.078.012-.155.03-.264.055.072.072.12.133.18.194 1.278 1.29 2.561 2.581 3.839 3.878.54.552.66 1.212.33 1.83-.426.789-1.463 1-2.153.437a5 5 0 0 1-.27-.242q-1.492-1.509-2.993-3.018c-.06-.061-.12-.116-.186-.182-.066.066-.126.115-.186.175-1.02 1.03-2.033 2.061-3.053 3.085-.546.552-1.217.655-1.83.303-.743-.424-.947-1.46-.419-2.133.084-.11.174-.206.27-.303q1.882-1.911 3.772-3.812c.06-.06.114-.121.139-.146z"/></g><defs><clipPath id="a"><path fill="#fff" d="M0 0h36v36H0z"/></clipPath></defs></svg>