<svg xmlns="http://www.w3.org/2000/svg" width="36" height="36" fill="none" viewBox="0 0 36 36"><g clip-path="url(#a)"><rect width="36" height="36" fill="#595959" rx="4.5"/><path fill="#fff" d="M25.99 26.258c.732-3.837 2.171-12.163 2.504-15.589.022-.303-.023-.693 0-.823a.86.86 0 0 0-.31-.586c-.266-.217-.687-.26-.864-.26-.842 0-2.105.434-8.262 2.949-2.149.867-6.446 2.688-12.914 5.442-1.04.412-1.595.802-1.639 1.192-.089.759.997.997 2.392 1.431 1.13.369 2.636.78 3.434.802.708.022 1.506-.282 2.392-.867 6.047-3.99 9.148-6.006 9.347-6.05.155-.02.332-.064.465.044a.43.43 0 0 1 .111.39c-.11.456-5.781 5.508-6.113 5.833-1.263 1.257-2.68 2.038-.488 3.447 1.883 1.214 2.99 1.995 4.94 3.252 1.24.803 2.215 1.735 3.5 1.626.575-.065 1.195-.607 1.506-2.233"/></g><defs><clipPath id="a"><path fill="#fff" d="M0 0h36v36H0z"/></clipPath></defs></svg>