<svg xmlns="http://www.w3.org/2000/svg" width="36" height="36" fill="none" viewBox="0 0 36 36"><g clip-path="url(#a)"><rect width="36" height="36" fill="#595959" rx="4.5"/><path fill="#fff" d="M22.13 19.824c-.341-.248-.687-.49-1.04-.714-.352-.224-.775-.224-1.103.048-.335.277-.493.807-.975.86-.288.036-.54-.088-.787-.194-1.555-.649-2.506-1.863-3.07-3.414a.67.67 0 0 1 .047-.607c.065-.1.147-.177.24-.254.106-.088.206-.176.318-.247.458-.312.528-.873.276-1.332-.411-.743-.916-1.421-1.468-2.064-.252-.295-.599-.395-.951-.224-.446.218-.863.507-1.18.89-.34.407-.67.967-.446 1.51.24.595.481 1.19.763 1.762.593 1.215 1.298 2.359 2.196 3.373 1.579 1.786 3.569 2.947 5.735 3.85.212.088.435.135.67.206.205-.065.422-.095.604-.195.646-.348 1.092-.89 1.397-1.544.17-.36.065-.702-.235-.967-.31-.277-.645-.507-.98-.75zm-1.584-3.349h.018a.28.28 0 0 0 .234-.23.9.9 0 0 0 0-.277c-.111-1.297-.898-1.87-1.996-1.946a.337.337 0 0 0-.358.277c-.029.177.077.33.265.378.176.04.352.03.528.076.135.042.27.1.381.183.247.177.4.448.47.743.035.147.047.3.065.454.023.206.14.336.358.342z"/><path fill="#fff" d="M21.64 16.5c0 .093 0 .188.036.276.1.29.528.254.605-.035.017-.077.023-.16.029-.2-.012-.195-.018-.343-.03-.49 0-.059-.017-.118-.029-.177-.194-1.315-.869-2.305-2.043-2.93-.575-.306-1.203-.448-1.855-.483-.2-.012-.329.118-.34.3-.012.195.093.319.293.348.165.024.323.041.487.065.37.059.734.165 1.069.33a3.2 3.2 0 0 1 1.344 1.268c.3.524.435 1.126.435 1.727"/><path fill="#fff" d="M18.006 10.945h-.165c-.2.012-.376.177-.34.39.047.253.31.265.51.288.317.036.646.048.957.106 2.102.378 3.78 2.129 4.074 4.245.053.401.077.808.106 1.215.018.206.117.395.346.395.218 0 .335-.195.317-.401-.035-.484-.07-.973-.152-1.456-.5-2.807-2.935-4.7-5.653-4.776z"/><path fill="#fff" d="M29.171 12.141v-.03c-.57-2.293-3.117-4.751-5.453-5.264h-.024a29.9 29.9 0 0 0-11.395 0h-.03c-2.33.519-4.872 2.977-5.441 5.27v.03a22.4 22.4 0 0 0-.006 9.645v.03c.546 2.193 2.9 4.54 5.154 5.188v2.559c0 .925 1.122 1.38 1.761.713l2.584-2.694a30.4 30.4 0 0 0 7.373-.495h.024c2.336-.52 4.884-2.978 5.447-5.265v-.03a22.35 22.35 0 0 0 .006-9.645zm-2.043 9.186c-.375 1.497-2.307 3.354-3.845 3.696a28 28 0 0 1-6.058.49.17.17 0 0 0-.106.04l-1.884 1.94-2.002 2.064a.236.236 0 0 1-.405-.165v-4.24a.144.144 0 0 0-.118-.14c-1.538-.343-3.463-2.206-3.845-3.697a20.4 20.4 0 0 1 0-8.72c.376-1.497 2.307-3.354 3.845-3.696a28 28 0 0 1 10.579 0c1.538.342 3.47 2.205 3.845 3.696a20.4 20.4 0 0 1 0 8.72z"/></g><defs><clipPath id="a"><path fill="#fff" d="M0 0h36v36H0z"/></clipPath></defs></svg>