<svg xmlns="http://www.w3.org/2000/svg" width="36" height="36" fill="none" viewBox="0 0 36 36"><g clip-path="url(#a)"><rect width="36" height="36" fill="#595959" rx="4.5"/><path fill="#fff" d="M18.624 25.199c-8.293 0-13.021-5.406-13.222-14.4H9.56c.14 6.596 3.195 9.394 5.63 9.974V10.8h3.916v5.691c2.394-.247 4.918-2.836 5.76-5.691h3.916a10.75 10.75 0 0 1-1.873 4.111 11.4 11.4 0 0 1-3.446 3.065 12 12 0 0 1 3.937 2.979 11.2 11.2 0 0 1 2.303 4.245h-4.307a7.07 7.07 0 0 0-2.324-3.474 7.77 7.77 0 0 0-3.956-1.675V25.2h-.49"/></g><defs><clipPath id="a"><path fill="#fff" d="M0 0h36v36H0z"/></clipPath></defs></svg>