<svg xmlns="http://www.w3.org/2000/svg" width="36" height="36" fill="none" viewBox="0 0 36 36"><g clip-path="url(#a)"><rect width="36" height="36" fill="#595959" rx="4.5"/><path fill="#fff" d="M18.217 6.299c-6.347 0-11.493 5.102-11.493 11.398 0 2.154.603 4.167 1.65 5.884L6.298 29.7l6.36-2.019a11.5 11.5 0 0 0 5.552 1.416c6.347 0 11.488-5.102 11.488-11.399S24.559 6.3 18.217 6.3m0 20.981a9.66 9.66 0 0 1-5.312-1.582L9.192 26.88l1.207-3.557a9.48 9.48 0 0 1-1.84-5.62c-.007-5.293 4.327-9.589 9.658-9.589 5.332 0 9.66 4.296 9.66 9.583s-4.334 9.583-9.66 9.583"/><path fill="#fff" d="M23.476 19.992c-.284-.142-1.669-.819-1.927-.911-.259-.092-.45-.142-.634.142-.191.276-.727.91-.893 1.095s-.326.21-.61.068c-.283-.142-1.188-.437-2.265-1.385-.837-.739-1.404-1.656-1.57-1.933s-.018-.43.123-.572c.13-.123.283-.326.425-.486.142-.167.19-.283.283-.468a.5.5 0 0 0-.024-.486c-.068-.142-.635-1.514-.869-2.074s-.467-.468-.634-.468-.35-.025-.541-.025-.493.068-.751.351c-.259.277-.985.954-.985 2.326s1.01 2.702 1.15 2.887c.142.185 1.946 3.102 4.815 4.216 2.863 1.12 2.863.745 3.38.696.517-.044 1.668-.677 1.902-1.33.234-.652.234-1.212.166-1.33-.074-.116-.258-.184-.541-.325z"/></g><defs><clipPath id="a"><path fill="#fff" d="M0 0h36v36H0z"/></clipPath></defs></svg>