<svg width="512" height="512" viewBox="0 0 512 512" fill="none" xmlns="http://www.w3.org/2000/svg">
<rect width="512" height="512" rx="80" fill="#97AB94"/>
<path d="M255.57 119C260.495 119 264.482 120.524 267.531 123.573C270.58 126.622 272.104 130.609 272.104 135.534V150.643C285.052 151.72 297.131 154.071 308.34 157.697C324.522 162.857 338.477 170.245 350.203 179.86C362.164 189.476 371.31 200.733 377.643 213.632C384.209 226.531 387.493 240.72 387.493 256.199C387.493 271.678 384.209 285.985 377.643 299.118C371.31 312.017 362.164 323.274 350.203 332.89C338.477 342.505 324.522 349.893 308.34 355.053C297.131 358.679 285.052 361.03 272.104 362.107V377.216C272.104 381.906 270.58 385.893 267.531 389.177C264.482 392.226 260.495 393.75 255.57 393.75C250.88 393.75 246.893 392.226 243.609 389.177C240.561 385.893 239.036 381.906 239.036 377.216V362.139C226.132 361.076 213.937 358.715 202.45 355.053C186.502 349.893 172.665 342.505 160.938 332.89C149.212 323.274 140.065 312.017 133.498 299.118C127.166 285.985 124 271.678 124 256.199C124 240.72 127.166 226.531 133.498 213.632C140.065 200.733 149.212 189.476 160.938 179.86C172.665 170.245 186.502 162.857 202.45 157.697C213.937 154.035 226.132 151.674 239.036 150.611V135.534C239.036 130.609 240.561 126.622 243.609 123.573C246.893 120.524 250.88 119 255.57 119ZM240.443 178.126C227.293 179.456 215.215 182.612 204.209 187.6C189.199 194.166 177.355 203.313 168.678 215.039C160.235 226.765 156.013 240.486 156.013 256.199C156.013 271.913 160.235 285.75 168.678 297.711C177.355 309.437 189.199 318.702 204.209 325.503C215.215 330.318 227.294 333.364 240.443 334.648V178.126ZM270.697 334.612C283.951 333.307 296.03 330.273 306.933 325.503C321.942 318.702 333.786 309.437 342.464 297.711C351.141 285.75 355.479 271.913 355.479 256.199C355.479 240.486 351.141 226.765 342.464 215.039C333.786 203.313 321.942 194.166 306.933 187.6C296.03 182.659 283.951 179.515 270.697 178.163V334.612Z" fill="white"/>
</svg>
